<?xml version="1.0" encoding="utf-8"?>
<svg xmlns="http://www.w3.org/2000/svg" xmlns:xlink="http://www.w3.org/1999/xlink" style="margin: auto; background: none; display: block; shape-rendering: auto;" width="251px" height="251px" viewBox="0 0 100 100" preserveAspectRatio="xMidYMid">
<g transform="rotate(0 50 50)">
  <rect x="47" y="20" rx="1.12" ry="1.12" width="6" height="16" fill="#f8b26a">
    <animate attributeName="opacity" values="1;0" keyTimes="0;1" dur="0.5555555555555556s" begin="-0.5050505050505051s" repeatCount="indefinite"></animate>
  </rect>
</g><g transform="rotate(32.72727272727273 50 50)">
  <rect x="47" y="20" rx="1.12" ry="1.12" width="6" height="16" fill="#f8b26a">
    <animate attributeName="opacity" values="1;0" keyTimes="0;1" dur="0.5555555555555556s" begin="-0.45454545454545453s" repeatCount="indefinite"></animate>
  </rect>
</g><g transform="rotate(65.45454545454545 50 50)">
  <rect x="47" y="20" rx="1.12" ry="1.12" width="6" height="16" fill="#f8b26a">
    <animate attributeName="opacity" values="1;0" keyTimes="0;1" dur="0.5555555555555556s" begin="-0.40404040404040403s" repeatCount="indefinite"></animate>
  </rect>
</g><g transform="rotate(98.18181818181819 50 50)">
  <rect x="47" y="20" rx="1.12" ry="1.12" width="6" height="16" fill="#f8b26a">
    <animate attributeName="opacity" values="1;0" keyTimes="0;1" dur="0.5555555555555556s" begin="-0.35353535353535354s" repeatCount="indefinite"></animate>
  </rect>
</g><g transform="rotate(130.9090909090909 50 50)">
  <rect x="47" y="20" rx="1.12" ry="1.12" width="6" height="16" fill="#f8b26a">
    <animate attributeName="opacity" values="1;0" keyTimes="0;1" dur="0.5555555555555556s" begin="-0.30303030303030304s" repeatCount="indefinite"></animate>
  </rect>
</g><g transform="rotate(163.63636363636363 50 50)">
  <rect x="47" y="20" rx="1.12" ry="1.12" width="6" height="16" fill="#f8b26a">
    <animate attributeName="opacity" values="1;0" keyTimes="0;1" dur="0.5555555555555556s" begin="-0.25252525252525254s" repeatCount="indefinite"></animate>
  </rect>
</g><g transform="rotate(196.36363636363637 50 50)">
  <rect x="47" y="20" rx="1.12" ry="1.12" width="6" height="16" fill="#f8b26a">
    <animate attributeName="opacity" values="1;0" keyTimes="0;1" dur="0.5555555555555556s" begin="-0.20202020202020202s" repeatCount="indefinite"></animate>
  </rect>
</g><g transform="rotate(229.0909090909091 50 50)">
  <rect x="47" y="20" rx="1.12" ry="1.12" width="6" height="16" fill="#f8b26a">
    <animate attributeName="opacity" values="1;0" keyTimes="0;1" dur="0.5555555555555556s" begin="-0.15151515151515152s" repeatCount="indefinite"></animate>
  </rect>
</g><g transform="rotate(261.8181818181818 50 50)">
  <rect x="47" y="20" rx="1.12" ry="1.12" width="6" height="16" fill="#f8b26a">
    <animate attributeName="opacity" values="1;0" keyTimes="0;1" dur="0.5555555555555556s" begin="-0.10101010101010101s" repeatCount="indefinite"></animate>
  </rect>
</g><g transform="rotate(294.54545454545456 50 50)">
  <rect x="47" y="20" rx="1.12" ry="1.12" width="6" height="16" fill="#f8b26a">
    <animate attributeName="opacity" values="1;0" keyTimes="0;1" dur="0.5555555555555556s" begin="-0.050505050505050504s" repeatCount="indefinite"></animate>
  </rect>
</g><g transform="rotate(327.27272727272725 50 50)">
  <rect x="47" y="20" rx="1.12" ry="1.12" width="6" height="16" fill="#f8b26a">
    <animate attributeName="opacity" values="1;0" keyTimes="0;1" dur="0.5555555555555556s" begin="0s" repeatCount="indefinite"></animate>
  </rect>
</g>
<!-- [ldio] generated by https://loading.io/ --></svg>